<mxfile host="app.diagrams.net" modified="2023-03-26T20:45:45.431Z" agent="Mozilla/5.0 (Macintosh; Intel Mac OS X 10_15_7) AppleWebKit/537.36 (KHTML, like Gecko) Chrome/109.0.0.0 Safari/537.36" etag="o9nwlF2fWmpxUyknBsMB" version="21.1.0" type="device">
  <diagram name="Страница 1" id="Y4JjuIU_WUD1opwg5xz9">
    <mxGraphModel dx="588" dy="361" grid="1" gridSize="10" guides="1" tooltips="1" connect="1" arrows="1" fold="1" page="1" pageScale="1" pageWidth="827" pageHeight="1169" math="0" shadow="0">
      <root>
        <mxCell id="0" />
        <mxCell id="1" parent="0" />
        <mxCell id="swO4v4rbnLAkL5PbUMj3-28" style="edgeStyle=orthogonalEdgeStyle;rounded=0;orthogonalLoop=1;jettySize=auto;html=1;entryX=0.542;entryY=-0.088;entryDx=0;entryDy=0;entryPerimeter=0;" edge="1" parent="1" source="swO4v4rbnLAkL5PbUMj3-1" target="swO4v4rbnLAkL5PbUMj3-3">
          <mxGeometry relative="1" as="geometry" />
        </mxCell>
        <mxCell id="swO4v4rbnLAkL5PbUMj3-1" value="1" style="ellipse;whiteSpace=wrap;html=1;aspect=fixed;" vertex="1" parent="1">
          <mxGeometry x="360" y="40" width="40" height="40" as="geometry" />
        </mxCell>
        <mxCell id="swO4v4rbnLAkL5PbUMj3-2" value="Виклик функціїї&amp;nbsp;&lt;br&gt;Validation" style="text;html=1;align=center;verticalAlign=middle;resizable=0;points=[];autosize=1;strokeColor=none;fillColor=none;" vertex="1" parent="1">
          <mxGeometry x="400" y="40" width="120" height="40" as="geometry" />
        </mxCell>
        <mxCell id="swO4v4rbnLAkL5PbUMj3-29" style="edgeStyle=orthogonalEdgeStyle;rounded=0;orthogonalLoop=1;jettySize=auto;html=1;entryX=0.5;entryY=0;entryDx=0;entryDy=0;" edge="1" parent="1" source="swO4v4rbnLAkL5PbUMj3-3" target="swO4v4rbnLAkL5PbUMj3-5">
          <mxGeometry relative="1" as="geometry" />
        </mxCell>
        <mxCell id="swO4v4rbnLAkL5PbUMj3-3" value="2" style="ellipse;whiteSpace=wrap;html=1;aspect=fixed;" vertex="1" parent="1">
          <mxGeometry x="360" y="120" width="40" height="40" as="geometry" />
        </mxCell>
        <mxCell id="swO4v4rbnLAkL5PbUMj3-4" value="Зчитування значення &lt;br&gt;числа &lt;b&gt;а&amp;nbsp;&lt;/b&gt;" style="text;html=1;align=center;verticalAlign=middle;resizable=0;points=[];autosize=1;strokeColor=none;fillColor=none;" vertex="1" parent="1">
          <mxGeometry x="400" y="120" width="150" height="40" as="geometry" />
        </mxCell>
        <mxCell id="swO4v4rbnLAkL5PbUMj3-30" style="edgeStyle=orthogonalEdgeStyle;rounded=0;orthogonalLoop=1;jettySize=auto;html=1;entryX=0.5;entryY=0;entryDx=0;entryDy=0;" edge="1" parent="1" source="swO4v4rbnLAkL5PbUMj3-5" target="swO4v4rbnLAkL5PbUMj3-7">
          <mxGeometry relative="1" as="geometry" />
        </mxCell>
        <mxCell id="swO4v4rbnLAkL5PbUMj3-5" value="3" style="ellipse;whiteSpace=wrap;html=1;aspect=fixed;" vertex="1" parent="1">
          <mxGeometry x="360" y="200" width="40" height="40" as="geometry" />
        </mxCell>
        <mxCell id="swO4v4rbnLAkL5PbUMj3-6" value="Зчитування значення&lt;br&gt;числа &lt;b&gt;b&lt;/b&gt;" style="text;html=1;align=center;verticalAlign=middle;resizable=0;points=[];autosize=1;strokeColor=none;fillColor=none;" vertex="1" parent="1">
          <mxGeometry x="400" y="200" width="150" height="40" as="geometry" />
        </mxCell>
        <mxCell id="swO4v4rbnLAkL5PbUMj3-13" style="rounded=0;orthogonalLoop=1;jettySize=auto;html=1;entryX=1;entryY=0;entryDx=0;entryDy=0;" edge="1" parent="1" source="swO4v4rbnLAkL5PbUMj3-7" target="swO4v4rbnLAkL5PbUMj3-11">
          <mxGeometry relative="1" as="geometry" />
        </mxCell>
        <mxCell id="swO4v4rbnLAkL5PbUMj3-14" style="rounded=0;orthogonalLoop=1;jettySize=auto;html=1;entryX=0;entryY=0;entryDx=0;entryDy=0;" edge="1" parent="1" source="swO4v4rbnLAkL5PbUMj3-7" target="swO4v4rbnLAkL5PbUMj3-9">
          <mxGeometry relative="1" as="geometry" />
        </mxCell>
        <mxCell id="swO4v4rbnLAkL5PbUMj3-7" value="4" style="ellipse;whiteSpace=wrap;html=1;aspect=fixed;" vertex="1" parent="1">
          <mxGeometry x="360" y="280" width="40" height="40" as="geometry" />
        </mxCell>
        <mxCell id="swO4v4rbnLAkL5PbUMj3-8" value="Значення виразу (a-2b) &amp;gt; 0 ?" style="text;html=1;align=center;verticalAlign=middle;resizable=0;points=[];autosize=1;strokeColor=none;fillColor=none;" vertex="1" parent="1">
          <mxGeometry x="400" y="280" width="190" height="30" as="geometry" />
        </mxCell>
        <mxCell id="swO4v4rbnLAkL5PbUMj3-22" style="edgeStyle=orthogonalEdgeStyle;rounded=0;orthogonalLoop=1;jettySize=auto;html=1;entryX=0.5;entryY=0;entryDx=0;entryDy=0;" edge="1" parent="1" source="swO4v4rbnLAkL5PbUMj3-9" target="swO4v4rbnLAkL5PbUMj3-18">
          <mxGeometry relative="1" as="geometry" />
        </mxCell>
        <mxCell id="swO4v4rbnLAkL5PbUMj3-9" value="5" style="ellipse;whiteSpace=wrap;html=1;aspect=fixed;" vertex="1" parent="1">
          <mxGeometry x="440" y="360" width="40" height="40" as="geometry" />
        </mxCell>
        <mxCell id="swO4v4rbnLAkL5PbUMj3-10" value="Так" style="text;html=1;align=center;verticalAlign=middle;resizable=0;points=[];autosize=1;strokeColor=none;fillColor=none;" vertex="1" parent="1">
          <mxGeometry x="430" y="310" width="40" height="30" as="geometry" />
        </mxCell>
        <mxCell id="swO4v4rbnLAkL5PbUMj3-27" style="rounded=0;orthogonalLoop=1;jettySize=auto;html=1;entryX=0;entryY=0;entryDx=0;entryDy=0;" edge="1" parent="1" source="swO4v4rbnLAkL5PbUMj3-11" target="swO4v4rbnLAkL5PbUMj3-24">
          <mxGeometry relative="1" as="geometry" />
        </mxCell>
        <mxCell id="swO4v4rbnLAkL5PbUMj3-11" value="6" style="ellipse;whiteSpace=wrap;html=1;aspect=fixed;" vertex="1" parent="1">
          <mxGeometry x="290" y="360" width="40" height="40" as="geometry" />
        </mxCell>
        <mxCell id="swO4v4rbnLAkL5PbUMj3-12" value="Ні" style="text;html=1;align=center;verticalAlign=middle;resizable=0;points=[];autosize=1;strokeColor=none;fillColor=none;" vertex="1" parent="1">
          <mxGeometry x="320" y="310" width="30" height="30" as="geometry" />
        </mxCell>
        <mxCell id="swO4v4rbnLAkL5PbUMj3-15" value="Виклик функції&amp;nbsp;&lt;br&gt;Calculate" style="text;html=1;align=center;verticalAlign=middle;resizable=0;points=[];autosize=1;strokeColor=none;fillColor=none;" vertex="1" parent="1">
          <mxGeometry x="480" y="360" width="110" height="40" as="geometry" />
        </mxCell>
        <mxCell id="swO4v4rbnLAkL5PbUMj3-17" value="Обрахунок виразу" style="text;html=1;align=center;verticalAlign=middle;resizable=0;points=[];autosize=1;strokeColor=none;fillColor=none;" vertex="1" parent="1">
          <mxGeometry x="480" y="445" width="130" height="30" as="geometry" />
        </mxCell>
        <mxCell id="swO4v4rbnLAkL5PbUMj3-23" style="edgeStyle=orthogonalEdgeStyle;rounded=0;orthogonalLoop=1;jettySize=auto;html=1;entryX=0.5;entryY=0;entryDx=0;entryDy=0;" edge="1" parent="1" source="swO4v4rbnLAkL5PbUMj3-18" target="swO4v4rbnLAkL5PbUMj3-20">
          <mxGeometry relative="1" as="geometry" />
        </mxCell>
        <mxCell id="swO4v4rbnLAkL5PbUMj3-18" value="7" style="ellipse;whiteSpace=wrap;html=1;aspect=fixed;" vertex="1" parent="1">
          <mxGeometry x="440" y="440" width="40" height="40" as="geometry" />
        </mxCell>
        <mxCell id="swO4v4rbnLAkL5PbUMj3-19" value="Вивід повідомлення&amp;nbsp;&lt;br&gt;&quot;this variables are wrong&quot;" style="text;html=1;align=center;verticalAlign=middle;resizable=0;points=[];autosize=1;strokeColor=none;fillColor=none;" vertex="1" parent="1">
          <mxGeometry x="130" y="360" width="160" height="40" as="geometry" />
        </mxCell>
        <mxCell id="swO4v4rbnLAkL5PbUMj3-26" style="rounded=0;orthogonalLoop=1;jettySize=auto;html=1;entryX=1;entryY=0;entryDx=0;entryDy=0;" edge="1" parent="1" source="swO4v4rbnLAkL5PbUMj3-20" target="swO4v4rbnLAkL5PbUMj3-24">
          <mxGeometry relative="1" as="geometry" />
        </mxCell>
        <mxCell id="swO4v4rbnLAkL5PbUMj3-20" value="8" style="ellipse;whiteSpace=wrap;html=1;aspect=fixed;" vertex="1" parent="1">
          <mxGeometry x="440" y="520" width="40" height="40" as="geometry" />
        </mxCell>
        <mxCell id="swO4v4rbnLAkL5PbUMj3-21" value="Виклик функції&amp;nbsp;&lt;br&gt;Display та вивід результату" style="text;html=1;align=center;verticalAlign=middle;resizable=0;points=[];autosize=1;strokeColor=none;fillColor=none;" vertex="1" parent="1">
          <mxGeometry x="480" y="520" width="180" height="40" as="geometry" />
        </mxCell>
        <mxCell id="swO4v4rbnLAkL5PbUMj3-24" value="8" style="ellipse;whiteSpace=wrap;html=1;aspect=fixed;" vertex="1" parent="1">
          <mxGeometry x="360" y="600" width="40" height="40" as="geometry" />
        </mxCell>
        <mxCell id="swO4v4rbnLAkL5PbUMj3-25" value="Завершення" style="text;html=1;align=center;verticalAlign=middle;resizable=0;points=[];autosize=1;strokeColor=none;fillColor=none;" vertex="1" parent="1">
          <mxGeometry x="400" y="605" width="90" height="30" as="geometry" />
        </mxCell>
      </root>
    </mxGraphModel>
  </diagram>
</mxfile>
